<svg height="36" viewBox="0 0 202 36" width="202" xmlns="http://www.w3.org/2000/svg"><g fill="none"><path d="m.58194862 14.5104951h13.79194978v-13.92256414h-13.79228213z" fill="#60bcf4"></path><path d="m34.8969761 7.54904683c0 4.16969017-3.3477831 7.54971157-7.4779233 7.54971157-4.1301403 0-7.4779235-3.3803538-7.4779235-7.54971157s3.3477832-7.54904683 7.4779235-7.54904683c4.1301402 0 7.4779233 3.38002141 7.4779233 7.54904683z" fill="#ff7a8a"></path><path d="m14.9558469 27.6799491c0 4.1696902-3.3481156 7.5497116-7.47792344 7.5497116-4.13014021-.0003323-7.47792346-3.3803537-7.47792346-7.5497116 0-4.1693577 3.34778325-7.5490467 7.47792346-7.5490467 4.12980784 0 7.47792344 3.3800214 7.47792344 7.5490467z" fill="#f7bfdb"></path><path d="m20.5230779 34.6417298h13.7919497v-13.9228966h-13.7922821z" fill="#055777"></path><path d="m67.4754639 12.4715142c-.5350869.2246701-.902336.4676195-1.3018233.889042-.201073.2120407-.3469756.3974932-.541734.6517426v-2.0150511h-3.2514011v14.2230105h3.2514011v-8.9246525c.0019941-.066138.0019941-.1322761.0053175-.1987465.049853-1.0628622.5231224-1.8970661 1.8259428-2.111101.6779984-.1116702 1.3696232-.1262937 2.0167129.1113381l.8943597-2.9446401c-.9854242-.1545438-1.9625395-.0737822-2.8987756.3193904zm74.9251371 0c-.535086.2246701-.971133.5716457-1.343034 1.0179947-.073783.0884057-.009306.0109676-.415773.4343842v-1.9266454h-3.251402v14.2230105h3.251402v-9.7090035c.184123-.7753776.694616-1.3526733 1.74651-1.5254965.677998-.1116702 1.369623-.1262937 2.016713.1113381l.89436-2.9446401c-.985424-.1545438-1.96254-.0737822-2.898776.3193904zm-34.422709 13.748744h3.522268l-5.76066-8.0911133 5.083326-5.1315172v-1.00038h-2.980202l-5.689869 5.7440423v-11.21455875h-3.2514007v19.69352695h3.2514007v-4.4701365l1.553082-1.5677051zm12.478826-11.2145588v-3.0084517h-2.574067v-3.28230988h-3.251069v3.28230988h-2.167601v3.0087841h2.167601v7.9322487c0 1.7667841 1.382585 3.2068661 3.115801 3.2786542v.0033235h2.302868v-2.8715226h-.745133c-.785681 0-1.422467-.6434339-1.422467-1.4364261v-6.9066101zm-63.9043399 6.4389906c0 1.418479-.8149275 2.2124684-2.1353626 2.2124684h-1.3490174c-.9844271 0-1.6906754-.4619696-1.9718453-1.3088028v-6.1475178c.2811699-.846501.9870859-1.3088028 1.9718453-1.3088028h1.3490174c1.3204351 0 2.1353626.7660717 2.1353626 2.2128007zm-1.5736875-9.3889483h-.5055076c-1.629855 0-2.585035.595575-3.23146 1.4749788h-.1455702v-7.00398925h-3.2510688v19.69352695h3.2510688v-1.2014531h.1455702c.646425.8794038 1.601605 1.4749789 3.23146 1.4749789h.5055076c3.147375 0 4.6928125-1.701643 4.6928125-4.7938475v-4.8506797c0-3.0918721-1.5454375-4.7938475-4.6928125-4.7938475zm24.9383763 6.1551619v-1.2197325c0-1.3898966-.7866775-2.0991361-2.0791951-2.0991361h-1.1801825c-1.2928499 0-2.0795274.7092395-2.0795274 2.1273861v1.1914825zm-2.6973701 8.2828804c-4.1866401 0-5.7603276-1.9854718-5.7603276-4.9354296v-4.5671833c0-3.0636221 1.5736875-4.9354294 5.0856527-4.9354294h1.4051849c3.5122975 0 5.1139027 1.8718073 5.1139027 4.9071796v3.574115h-8.4859476v.9927359c0 1.3330644.8431774 2.2693005 2.7259523 2.2693005h.3090876c1.9103602 0 3.1487042-.4978636 3.9353818-.8950243l1.1961354 1.8033427c-.9555124.9644859-3.0523221 1.7863929-5.1315172 1.7863929zm16.0961471-5.0773439c0 1.1346502-.95518 2.3543827-2.6412025 2.3543827h-1.1798501c-1.0960974 0-1.7425224-.4254108-1.7425224-1.5886433v-.5390752c0-1.2197324.646425-1.5032288 1.7142724-1.5032288h3.8493026v1.2762323zm3.272007-3.1128104c-.0079764-.3592725-.0116323-.720207-.0206058-1.0804768v-.1658436l-.004653-.0016618c-.0152881-.4985283-.0432058-.9963918-.1106731-1.4876082-.1694998-1.2350207-.7830218-2.2164566-1.9123544-2.8283169-.8006363-.4333872-1.6664138-.6092015-2.5491411-.6231603-1.0512298-.0166176-1.8472132.0890704-2.8911313.2053937-.7793657.0874086-2.9632517.6327985-2.9632517.6327985s.4104548 1.8718073.5417339 2.4614c0 0 2.9167225-.5739722 4.2222018-.4932106.4905517.0305764.9844271.1425791 1.4573641.2841611.3961638.1189821.7584277.3772197.8707626.8016334.0339.1292851.0624822.2605641.087741.3928402v1.4689965h-4.2707251c-2.9223725 0-4.355475 1.0495682-4.355475 3.6026975v.8508214c0 2.6096291 1.2928499 4.1696902 4.1308049 4.1696902h.1964202c1.9110248 0 3.090875-.9076538 3.9898876-2.0140541h.3090874v1.7405283h3.2514012v-3.5555033c.0132941-.4812461.0239293-.9751212.0239293-1.5122023h.0013295c0-.9495302.0162852-1.899725-.004653-2.8489229zm34.0597811-6.7696809h-.47759c-1.573355 0-2.781788.5959074-3.42788 1.5886433h-.324708v-6.5955285h-3.251401v19.6931946h3.251401v-9.547148c.004653-.034897.009306-.0701264.014623-.1046909.029912-.1891084.039218-.4363784.036891-.7012631.262891-.9721301 1.070507-1.4965818 2.212136-1.4965818h1.075492c1.349017 0 2.079527.7657394 2.079527 2.2410506v9.6086332h3.251402v-9.892462c0-3.091872-1.264601-4.7938474-4.439561-4.7938474zm22.304153 12.1232096c1.320767 0 2.107112-.7092395 2.107112-2.1270539v-4.5110157c0-1.4181467-.786345-2.1270538-2.107112-2.1270538h-1.404852c-1.292851 0-2.079527.7089071-2.079527 2.1270538v4.5106834c0 1.4181467.787009 2.1273862 2.079527 2.1273862zm-6.603172-2.070554v-4.6236831c0-3.0353723 1.573687-4.907512 5.085653-4.907512h1.658104c3.484048 0 5.085985 1.8721397 5.085985 4.907512v4.6236831c0 3.0350399-1.601937 4.9071796-5.085985 4.9071796h-1.658104c-3.511966 0-5.085653-1.8721397-5.085653-4.9071796zm22.877128-9.5893567v-.0003323h3.251068v14.2236751h-3.251068v-1.3493498h-.325042c-.618174 1.0213182-1.826274 1.6168932-3.39996 1.6168932h-.505842c-3.17496 0-4.439226-1.7019752-4.439226-4.7938474v-9.6970388h3.251068v9.4135424c0 1.4463966.626483 2.2407182 1.975169 2.2407182h1.2081c1.155921 0 1.992451-.5613427 2.232076-1.596952-.001993-.1465674-.002658-.2741906-.001328-.3732316.002326-.1807995.00299-.3615991.004985-.5423986zm27.720829-.4632986c3.17496 0 4.439559 1.7019753 4.439559 4.7938475v9.8924618h-3.251401v-9.6086331c0-1.4753112-.73051-2.2410506-2.079527-2.2410506h-1.075824c-1.141298 0-1.948913.5244517-2.211471 1.4965817.002326.2648847-.007312.5121547-.037223.7012631-.005318.034897-.009639.0697939-.014624.1046909v9.547148h-3.251401v-19.69319454h3.251401v6.59552854h.324708c.646425-.9927359 1.854525-1.5886433 3.428212-1.5886433zm-15.381591 12.1105799h-1.320768c-1.320767 0-2.135362-.7943218-2.135362-2.2124684v-4.3398543c0-1.446729.814595-2.2128007 2.135362-2.2128007h1.320768c1.320436 0 2.135362.7943216 2.135362 2.2128007v4.3398543c0 1.4181466-.814926 2.2124684-2.135362 2.2124684zm2.135362-11.6472813v1.5208435h-.309087c-.646093-.8794038-1.601605-1.4753113-3.20321-1.4753113h-.505839c-3.174961 0-4.692481 1.7019754-4.692481 4.7938475v4.8506797c0 3.0918721 1.51752 4.7938475 4.692813 4.7938475h.505507c1.601937 0 2.557117-.5955751 3.20321-1.4749789h.309087v2.4072266c-.126958.5699841-.451666 1.0279653-1.038268 1.2629382-.363593.1452379-.762416.2562436-1.151267.2791758h-3.771201v2.7352582h5.960736c1.795699 0 3.251402-1.4696611 3.251402-3.2823098v-16.411217z" fill="#062743"></path></g></svg>
