<svg xmlns="http://www.w3.org/2000/svg" xmlns:xlink="http://www.w3.org/1999/xlink" width="140" height="39" viewBox="0 0 140 39">
    <desc>
        Created using Figma
    </desc>
    <use fill="#FFF" transform="matrix(.975 0 0 .975 120.465 8.412)" xlink:href="#a"/>
    <use fill="#FFF" transform="translate(113.303) scale(.975)" xlink:href="#b"/>
    <use fill="#FFF" transform="matrix(.975 0 0 .975 113.877 8.412)" xlink:href="#c"/>
    <use fill="#F2486A" transform="matrix(.975 0 0 .975 89.343 8.412)" xlink:href="#d"/>
    <use fill="#FFF" transform="matrix(.975 0 0 .975 70.125 8.412)" xlink:href="#e"/>
    <use fill="#FFF" transform="matrix(.975 0 0 .975 38.275 8.412)" xlink:href="#f"/>
    <use fill="#FFF" transform="matrix(.975 0 0 .975 15.993 8.412)" xlink:href="#g"/>
    <use fill="#FFF" transform="matrix(.975 0 0 .975 0 8.41)" xlink:href="#h"/>
    <defs>
        <path id="a" d="M9.814 0C4.394 0 0 4.39 0 9.804c0 5.415 4.394 9.804 9.814 9.804s9.814-4.39 9.814-9.804C19.628 4.39 15.234 0 9.814 0zm0 16.078a6.277 6.277 0 0 1-6.28-6.274 6.278 6.278 0 0 1 6.28-6.274 6.278 6.278 0 0 1 6.281 6.274 6.277 6.277 0 0 1-6.28 6.274z"/>
        <path id="b" d="M4.711 2.353C4.711 1.053 3.657 0 2.356 0a2.354 2.354 0 0 0 0 4.706A2.354 2.354 0 0 0 4.71 2.353z"/>
        <path id="c" d="M3.533 0H0v19.608h3.533V0z"/>
        <path id="d" d="M22.807 19.608h-3.899L11.403 3.53 3.898 19.608H0L9.153 0h4.501l9.153 19.608z"/>
        <path id="e" d="M16.094 2.271C11.93-1.194 5.741-.63 2.273 3.53A9.796 9.796 0 0 0 0 9.805v21.568h3.533V17.338c4.165 3.465 10.353 2.902 13.822-1.26 3.468-4.16 2.904-10.342-1.26-13.807zM9.814 16.08a6.277 6.277 0 0 1-6.282-6.274A6.278 6.278 0 0 1 9.813 3.53a6.278 6.278 0 0 1 6.281 6.275 6.277 6.277 0 0 1-6.28 6.274z"/>
        <path id="f" d="M12.954 19.608V8.235a4.708 4.708 0 0 0-4.71-4.705 4.708 4.708 0 0 0-4.71 4.705v11.373H0V8.235a8.234 8.234 0 0 1 3.144-6.47 8.249 8.249 0 0 1 11.577 1.377A8.248 8.248 0 0 1 21.198 0c4.553 0 8.244 3.687 8.244 8.235v11.372h-3.534V8.235a4.708 4.708 0 0 0-4.71-4.705 4.708 4.708 0 0 0-4.71 4.705v11.373h-3.534z"/>
        <path id="g" d="M9.814 0C4.394 0 0 4.39 0 9.804c0 5.415 4.394 9.804 9.814 9.804s9.814-4.39 9.814-9.804C19.628 4.39 15.234 0 9.814 0zm0 16.078a6.277 6.277 0 0 1-6.28-6.274 6.278 6.278 0 0 1 6.28-6.274c3.469 0 6.28 2.809 6.28 6.274a6.277 6.277 0 0 1-6.28 6.274z"/>
        <path id="h" d="M13.417 14.945a6.285 6.285 0 0 1-7.205 0A6.27 6.27 0 0 1 4.67 6.206a6.285 6.285 0 0 1 8.747-1.54l2.027-2.892C11.004-1.332 4.884-.254 1.776 4.182c-3.11 4.435-2.03 10.548 2.41 13.654a9.822 9.822 0 0 0 11.258 0l-2.027-2.891z"/>
    </defs>
</svg>
