<svg width="1200" height="97" viewBox="0 0 1200 97" fill="none" xmlns="http://www.w3.org/2000/svg">
<path d="M29.2 95C25.6 95 22.2667 94.2667 19.2 92.8C16.1333 91.2667 13.4667 89.2667 11.2 86.8C9 84.2667 7.26667 81.4 6 78.2C4.8 74.9333 4.2 71.5667 4.2 68.1C4.2 64.5 4.8 61.0667 6 57.8C7.2 54.5333 8.86667 51.6667 11 49.2C13.1333 46.7333 15.6333 44.7667 18.5 43.3C21.4333 41.8333 24.6333 41.1 28.1 41.1C30.3667 41.1 32.5 41.4333 34.5 42.1C36.5 42.7667 38.3667 43.6667 40.1 44.8C41.8333 45.8667 43.4 47.1333 44.8 48.6C46.2 50.0667 47.4 51.6333 48.4 53.3V21H53.4V87C53.4 88.6667 54.1 89.5 55.5 89.5V94C55.1 94.0667 54.7667 94.1 54.5 94.1C54.2333 94.1667 53.9667 94.2 53.7 94.2C52.3667 94.2 51.2333 93.7 50.3 92.7C49.3667 91.6333 48.9 90.5333 48.9 89.4V83.6C46.7667 87.0667 43.9 89.8333 40.3 91.9C36.7667 93.9667 33.0667 95 29.2 95ZM30.1 90.5C31.9 90.5 33.8333 90.1333 35.9 89.4C37.9667 88.6667 39.8667 87.6667 41.6 86.4C43.4 85.0667 44.9333 83.5667 46.2 81.9C47.4667 80.2333 48.2 78.4333 48.4 76.5V59.4C47.6667 57.5333 46.6 55.7667 45.2 54.1C43.8667 52.3667 42.3333 50.9 40.6 49.7C38.8667 48.4333 37 47.4333 35 46.7C33 45.9667 31.0667 45.6 29.2 45.6C26.2 45.6 23.4667 46.2667 21 47.6C18.5333 48.8667 16.4333 50.5667 14.7 52.7C12.9667 54.7667 11.6333 57.1667 10.7 59.9C9.76667 62.5667 9.3 65.3333 9.3 68.2C9.3 71.2 9.83333 74.0333 10.9 76.7C11.9667 79.3667 13.4333 81.7333 15.3 83.8C17.2333 85.8667 19.4333 87.5 21.9 88.7C24.4333 89.9 27.1667 90.5 30.1 90.5ZM91.4234 95C87.7568 95 84.3568 94.3 81.2234 92.9C78.0901 91.4333 75.3568 89.4667 73.0234 87C70.7568 84.4667 68.9568 81.5667 67.6234 78.3C66.3568 75.0333 65.7234 71.5333 65.7234 67.8C65.7234 64.1333 66.3568 60.7 67.6234 57.5C68.9568 54.2333 70.7568 51.4 73.0234 49C75.2901 46.5333 77.9568 44.6 81.0234 43.2C84.1568 41.8 87.5234 41.1 91.1234 41.1C94.7901 41.1 98.1901 41.8333 101.323 43.3C104.457 44.7 107.157 46.6333 109.423 49.1C111.69 51.5 113.457 54.3333 114.723 57.6C115.99 60.8 116.623 64.2 116.623 67.8C116.623 68.1333 116.623 68.5667 116.623 69.1C116.623 69.5667 116.59 69.8667 116.523 70H70.9234C71.1234 73 71.8234 75.8 73.0234 78.4C74.2234 80.9333 75.7234 83.1333 77.5234 85C79.3901 86.8667 81.5234 88.3333 83.9234 89.4C86.3234 90.4667 88.8901 91 91.6234 91C93.4234 91 95.1901 90.7667 96.9234 90.3C98.6568 89.7667 100.257 89.0667 101.723 88.2C103.257 87.3333 104.59 86.3 105.723 85.1C106.923 83.8333 107.857 82.4667 108.523 81L112.923 82.2C112.19 84.0667 111.09 85.8 109.623 87.4C108.223 88.9333 106.557 90.2667 104.623 91.4C102.757 92.5333 100.69 93.4 98.4234 94C96.1568 94.6667 93.8234 95 91.4234 95ZM111.823 66C111.623 62.9333 110.923 60.1333 109.723 57.6C108.59 55.0667 107.09 52.9 105.223 51.1C103.423 49.2333 101.323 47.8 98.9234 46.8C96.5234 45.7333 93.9568 45.2 91.2234 45.2C88.4901 45.2 85.9234 45.7333 83.5234 46.8C81.1234 47.8 78.9901 49.2333 77.1234 51.1C75.3234 52.9 73.8568 55.1 72.7234 57.7C71.6568 60.2333 71.0234 63 70.8234 66H111.823ZM127.624 94V42H132.624V94H127.624ZM127.624 30.2V21H132.624V30.2H127.624ZM190.827 94H185.827V65C185.827 58.2667 184.861 53.3667 182.927 50.3C181.061 47.2333 178.061 45.7 173.927 45.7C171.727 45.7 169.527 46.1 167.327 46.9C165.194 47.7 163.194 48.8333 161.327 50.3C159.461 51.7667 157.827 53.5 156.427 55.5C155.027 57.4333 153.994 59.5333 153.327 61.8V94H148.327V42H153.027V54.4C154.094 52.4 155.394 50.6 156.927 49C158.527 47.3333 160.294 45.9333 162.227 44.8C164.227 43.6 166.327 42.7 168.527 42.1C170.727 41.4333 172.994 41.1 175.327 41.1C180.994 41.1 184.994 43.1 187.327 47.1C189.661 51.0333 190.827 56.7 190.827 64.1V94ZM228.045 95C224.378 95 220.978 94.3 217.845 92.9C214.711 91.4333 211.978 89.4667 209.645 87C207.378 84.4667 205.578 81.5667 204.245 78.3C202.978 75.0333 202.345 71.5333 202.345 67.8C202.345 64.1333 202.978 60.7 204.245 57.5C205.578 54.2333 207.378 51.4 209.645 49C211.911 46.5333 214.578 44.6 217.645 43.2C220.778 41.8 224.145 41.1 227.745 41.1C231.411 41.1 234.811 41.8333 237.945 43.3C241.078 44.7 243.778 46.6333 246.045 49.1C248.311 51.5 250.078 54.3333 251.345 57.6C252.611 60.8 253.245 64.2 253.245 67.8C253.245 68.1333 253.245 68.5667 253.245 69.1C253.245 69.5667 253.211 69.8667 253.145 70H207.545C207.745 73 208.445 75.8 209.645 78.4C210.845 80.9333 212.345 83.1333 214.145 85C216.011 86.8667 218.145 88.3333 220.545 89.4C222.945 90.4667 225.511 91 228.245 91C230.045 91 231.811 90.7667 233.545 90.3C235.278 89.7667 236.878 89.0667 238.345 88.2C239.878 87.3333 241.211 86.3 242.345 85.1C243.545 83.8333 244.478 82.4667 245.145 81L249.545 82.2C248.811 84.0667 247.711 85.8 246.245 87.4C244.845 88.9333 243.178 90.2667 241.245 91.4C239.378 92.5333 237.311 93.4 235.045 94C232.778 94.6667 230.445 95 228.045 95ZM248.445 66C248.245 62.9333 247.545 60.1333 246.345 57.6C245.211 55.0667 243.711 52.9 241.845 51.1C240.045 49.2333 237.945 47.8 235.545 46.8C233.145 45.7333 230.578 45.2 227.845 45.2C225.111 45.2 222.545 45.7333 220.145 46.8C217.745 47.8 215.611 49.2333 213.745 51.1C211.945 52.9 210.478 55.1 209.345 57.7C208.278 60.2333 207.645 63 207.445 66H248.445ZM282.345 95C277.945 95 273.645 94.3 269.445 92.9C265.245 91.5 261.645 89.5 258.645 86.9L263.645 78.5C266.845 80.7667 269.945 82.5 272.945 83.7C276.012 84.8333 279.045 85.4 282.045 85.4C284.712 85.4 286.812 84.9 288.345 83.9C289.879 82.9 290.645 81.4667 290.645 79.6C290.645 77.7333 289.745 76.3667 287.945 75.5C286.145 74.6333 283.212 73.6333 279.145 72.5C275.745 71.5667 272.845 70.6667 270.445 69.8C268.045 68.9333 266.112 67.9667 264.645 66.9C263.179 65.7667 262.112 64.5 261.445 63.1C260.779 61.6333 260.445 59.9 260.445 57.9C260.445 55.2333 260.945 52.8333 261.945 50.7C263.012 48.5667 264.479 46.7667 266.345 45.3C268.212 43.7667 270.379 42.6 272.845 41.8C275.379 41 278.112 40.6 281.045 40.6C284.979 40.6 288.645 41.1667 292.045 42.3C295.512 43.4333 298.679 45.2667 301.545 47.8L296.145 55.9C293.479 53.9 290.879 52.4333 288.345 51.5C285.879 50.5667 283.412 50.1 280.945 50.1C278.679 50.1 276.779 50.5667 275.245 51.5C273.712 52.4333 272.945 53.9333 272.945 56C272.945 56.9333 273.112 57.7 273.445 58.3C273.845 58.9 274.445 59.4333 275.245 59.9C276.045 60.3667 277.079 60.8333 278.345 61.3C279.679 61.7 281.312 62.1333 283.245 62.6C286.845 63.5333 289.912 64.4667 292.445 65.4C295.045 66.3333 297.145 67.4 298.745 68.6C300.412 69.8 301.612 71.2 302.345 72.8C303.145 74.3333 303.545 76.2 303.545 78.4C303.545 83.5333 301.645 87.6 297.845 90.6C294.045 93.5333 288.879 95 282.345 95ZM343.652 91.3C341.852 92.1 339.652 92.9 337.052 93.7C334.452 94.5 331.719 94.9 328.852 94.9C326.986 94.9 325.219 94.6667 323.552 94.2C321.952 93.7333 320.519 93 319.252 92C318.052 90.9333 317.086 89.6 316.352 88C315.619 86.3333 315.252 84.3333 315.252 82V51.9H308.352V41.6H315.252V24.6H328.652V41.6H339.652V51.9H328.652V77.5C328.652 79.3667 329.119 80.7 330.052 81.5C331.052 82.2333 332.252 82.6 333.652 82.6C335.052 82.6 336.419 82.3667 337.752 81.9C339.086 81.4333 340.152 81.0333 340.952 80.7L343.652 91.3ZM366.631 95C361.231 95 357.131 93.2667 354.331 89.8C351.531 86.3333 350.131 81.2 350.131 74.4V41.6H363.531V71.5C363.531 79.5667 366.431 83.6 372.231 83.6C374.831 83.6 377.331 82.8333 379.731 81.3C382.198 79.7 384.198 77.3 385.731 74.1V41.6H399.131V78.6C399.131 80 399.365 81 399.831 81.6C400.365 82.2 401.198 82.5333 402.331 82.6V94C400.998 94.2667 399.865 94.4333 398.931 94.5C398.065 94.5667 397.265 94.6 396.531 94.6C394.131 94.6 392.165 94.0667 390.631 93C389.165 91.8667 388.298 90.3333 388.031 88.4L387.731 84.2C385.398 87.8 382.398 90.5 378.731 92.3C375.065 94.1 371.031 95 366.631 95ZM434.148 95C430.548 95 427.214 94.3 424.148 92.9C421.081 91.5 418.448 89.5667 416.248 87.1C414.048 84.6333 412.314 81.7667 411.048 78.5C409.848 75.1667 409.248 71.6 409.248 67.8C409.248 64 409.814 60.4667 410.948 57.2C412.148 53.9333 413.781 51.0667 415.848 48.6C417.914 46.1333 420.381 44.2 423.248 42.8C426.114 41.4 429.248 40.7 432.648 40.7C436.514 40.7 439.981 41.6333 443.048 43.5C446.181 45.3667 448.614 47.8 450.348 50.8V21H463.748V78.6C463.748 80 463.981 81 464.448 81.6C464.914 82.2 465.714 82.5333 466.848 82.6V94C464.514 94.4667 462.614 94.7 461.148 94.7C458.748 94.7 456.781 94.1 455.248 92.9C453.714 91.7 452.848 90.1333 452.648 88.2L452.348 84.9C450.414 88.2333 447.781 90.7667 444.448 92.5C441.181 94.1667 437.748 95 434.148 95ZM437.648 83.6C438.914 83.6 440.214 83.4 441.548 83C442.881 82.5333 444.114 81.9 445.248 81.1C446.381 80.3 447.381 79.3667 448.248 78.3C449.181 77.2333 449.881 76.0667 450.348 74.8V62.3C449.814 60.8333 449.048 59.5 448.048 58.3C447.114 57.0333 446.014 55.9667 444.748 55.1C443.548 54.1667 442.248 53.4333 440.848 52.9C439.514 52.3667 438.181 52.1 436.848 52.1C434.848 52.1 432.981 52.5333 431.248 53.4C429.581 54.2667 428.148 55.4667 426.948 57C425.748 58.4667 424.814 60.1667 424.148 62.1C423.481 64.0333 423.148 66.0333 423.148 68.1C423.148 70.3 423.514 72.3333 424.248 74.2C424.981 76.0667 425.981 77.7 427.248 79.1C428.514 80.5 430.014 81.6 431.748 82.4C433.548 83.2 435.514 83.6 437.648 83.6ZM476.901 94V41.6H490.301V94H476.901ZM476.901 34.3V21H490.301V34.3H476.901ZM526.689 95C522.489 95 518.689 94.3 515.289 92.9C511.889 91.4333 508.989 89.4667 506.589 87C504.189 84.5333 502.322 81.6667 500.989 78.4C499.722 75.1333 499.089 71.7 499.089 68.1C499.089 64.3667 499.722 60.8667 500.989 57.6C502.256 54.2667 504.089 51.3667 506.489 48.9C508.889 46.3667 511.789 44.3667 515.189 42.9C518.656 41.4333 522.522 40.7 526.789 40.7C531.056 40.7 534.856 41.4333 538.189 42.9C541.589 44.3667 544.456 46.3333 546.789 48.8C549.189 51.2667 550.989 54.1333 552.189 57.4C553.456 60.6667 554.089 64.0667 554.089 67.6C554.089 68.4667 554.056 69.3 553.989 70.1C553.989 70.9 553.922 71.5667 553.789 72.1H513.289C513.489 74.1667 513.989 76 514.789 77.6C515.589 79.2 516.622 80.5667 517.889 81.7C519.156 82.8333 520.589 83.7 522.189 84.3C523.789 84.9 525.456 85.2 527.189 85.2C529.856 85.2 532.356 84.5667 534.689 83.3C537.089 81.9667 538.722 80.2333 539.589 78.1L551.089 81.3C549.156 85.3 546.056 88.6 541.789 91.2C537.589 93.7333 532.556 95 526.689 95ZM540.289 63.4C539.956 59.4667 538.489 56.3333 535.889 54C533.356 51.6 530.256 50.4 526.589 50.4C524.789 50.4 523.089 50.7333 521.489 51.4C519.956 52 518.589 52.8667 517.389 54C516.189 55.1333 515.189 56.5 514.389 58.1C513.656 59.7 513.222 61.4667 513.089 63.4H540.289ZM610.952 94H597.552V64.6C597.552 60.4 596.819 57.3333 595.352 55.4C593.886 53.4667 591.852 52.5 589.252 52.5C587.919 52.5 586.552 52.7667 585.152 53.3C583.752 53.8333 582.419 54.6 581.152 55.6C579.952 56.5333 578.852 57.6667 577.852 59C576.852 60.3333 576.119 61.8 575.652 63.4V94H562.252V41.6H574.352V51.3C576.286 47.9667 579.086 45.3667 582.752 43.5C586.419 41.6333 590.552 40.7 595.152 40.7C598.419 40.7 601.086 41.3 603.152 42.5C605.219 43.7 606.819 45.2667 607.952 47.2C609.086 49.1333 609.852 51.3333 610.252 53.8C610.719 56.2667 610.952 58.7667 610.952 61.3V94ZM625.316 54.6H618.416V44.4H625.316V41.2C625.316 38.3333 625.782 35.6 626.716 33C627.716 30.4 629.116 28.1667 630.916 26.3C632.782 24.3667 635.016 22.8333 637.616 21.7C640.282 20.5667 643.282 20 646.616 20C650.416 20 653.882 20.6333 657.016 21.9C660.216 23.1 663.216 24.6333 666.016 26.5L660.716 36.5C658.982 34.9667 656.949 33.7333 654.616 32.8C652.282 31.8667 649.916 31.4 647.516 31.4C644.516 31.4 642.282 32.3333 640.816 34.2C639.416 36.0667 638.716 38.2333 638.716 40.7V44.4H666.816V94H653.416V54.6H638.716V94H625.316V54.6ZM727.652 94H714.252V64.6C714.252 60.4 713.518 57.3333 712.052 55.4C710.585 53.4667 708.552 52.5 705.952 52.5C704.618 52.5 703.252 52.7667 701.852 53.3C700.452 53.8333 699.118 54.6 697.852 55.6C696.652 56.5333 695.552 57.6667 694.552 59C693.552 60.3333 692.818 61.8 692.352 63.4V94H678.952V41.6H691.052V51.3C692.985 47.9667 695.785 45.3667 699.452 43.5C703.118 41.6333 707.252 40.7 711.852 40.7C715.118 40.7 717.785 41.3 719.852 42.5C721.918 43.7 723.518 45.2667 724.652 47.2C725.785 49.1333 726.552 51.3333 726.952 53.8C727.418 56.2667 727.652 58.7667 727.652 61.3V94ZM753.603 95C751.07 95 748.703 94.6 746.503 93.8C744.303 92.9333 742.403 91.7667 740.803 90.3C739.203 88.7667 737.936 87 737.003 85C736.136 83 735.703 80.8 735.703 78.4C735.703 75.9333 736.236 73.6667 737.303 71.6C738.436 69.4667 739.97 67.6667 741.903 66.2C743.903 64.7333 746.27 63.6 749.003 62.8C751.736 61.9333 754.736 61.5 758.003 61.5C760.336 61.5 762.603 61.7 764.803 62.1C767.07 62.5 769.07 63.0667 770.803 63.8V60.8C770.803 57.3333 769.803 54.6667 767.803 52.8C765.87 50.9333 762.97 50 759.103 50C756.303 50 753.57 50.5 750.903 51.5C748.236 52.5 745.503 53.9667 742.703 55.9L738.603 47.4C745.336 42.9333 752.603 40.7 760.403 40.7C767.936 40.7 773.77 42.5667 777.903 46.3C782.103 49.9667 784.203 55.3 784.203 62.3V78.6C784.203 80 784.436 81 784.903 81.6C785.436 82.2 786.27 82.5333 787.403 82.6V94C785.136 94.4667 783.17 94.7 781.503 94.7C778.97 94.7 777.003 94.1333 775.603 93C774.27 91.8667 773.436 90.3667 773.103 88.5L772.803 85.6C770.47 88.6667 767.636 91 764.303 92.6C760.97 94.2 757.403 95 753.603 95ZM757.403 85.2C759.67 85.2 761.803 84.8 763.803 84C765.87 83.2 767.47 82.1333 768.603 80.8C770.07 79.6667 770.803 78.4 770.803 77V71C769.203 70.4 767.47 69.9333 765.603 69.6C763.736 69.2 761.936 69 760.203 69C756.736 69 753.903 69.8 751.703 71.4C749.503 72.9333 748.403 74.9 748.403 77.3C748.403 79.5667 749.27 81.4667 751.003 83C752.736 84.4667 754.87 85.2 757.403 85.2ZM845.425 94H832.025V64.6C832.025 60.4 831.292 57.3333 829.825 55.4C828.358 53.4667 826.325 52.5 823.725 52.5C822.392 52.5 821.025 52.7667 819.625 53.3C818.225 53.8333 816.892 54.6 815.625 55.6C814.425 56.5333 813.325 57.6667 812.325 59C811.325 60.3333 810.592 61.8 810.125 63.4V94H796.725V41.6H808.825V51.3C810.758 47.9667 813.558 45.3667 817.225 43.5C820.892 41.6333 825.025 40.7 829.625 40.7C832.892 40.7 835.558 41.3 837.625 42.5C839.692 43.7 841.292 45.2667 842.425 47.2C843.558 49.1333 844.325 51.3333 844.725 53.8C845.192 56.2667 845.425 58.7667 845.425 61.3V94ZM853.577 85.8L882.777 51H854.777V41.6H896.877V49.8L867.877 84.6H897.377V94H853.577V85.8ZM906.393 94V41.6H919.793V94H906.393ZM906.393 34.3V21H919.793V34.3H906.393ZM956.181 95C951.981 95 948.181 94.3 944.781 92.9C941.381 91.4333 938.481 89.4667 936.081 87C933.681 84.5333 931.815 81.6667 930.481 78.4C929.215 75.1333 928.581 71.7 928.581 68.1C928.581 64.3667 929.215 60.8667 930.481 57.6C931.748 54.2667 933.581 51.3667 935.981 48.9C938.381 46.3667 941.281 44.3667 944.681 42.9C948.148 41.4333 952.015 40.7 956.281 40.7C960.548 40.7 964.348 41.4333 967.681 42.9C971.081 44.3667 973.948 46.3333 976.281 48.8C978.681 51.2667 980.481 54.1333 981.681 57.4C982.948 60.6667 983.581 64.0667 983.581 67.6C983.581 68.4667 983.548 69.3 983.481 70.1C983.481 70.9 983.415 71.5667 983.281 72.1H942.781C942.981 74.1667 943.481 76 944.281 77.6C945.081 79.2 946.115 80.5667 947.381 81.7C948.648 82.8333 950.081 83.7 951.681 84.3C953.281 84.9 954.948 85.2 956.681 85.2C959.348 85.2 961.848 84.5667 964.181 83.3C966.581 81.9667 968.215 80.2333 969.081 78.1L980.581 81.3C978.648 85.3 975.548 88.6 971.281 91.2C967.081 93.7333 962.048 95 956.181 95ZM969.781 63.4C969.448 59.4667 967.981 56.3333 965.381 54C962.848 51.6 959.748 50.4 956.081 50.4C954.281 50.4 952.581 50.7333 950.981 51.4C949.448 52 948.081 52.8667 946.881 54C945.681 55.1333 944.681 56.5 943.881 58.1C943.148 59.7 942.715 61.4667 942.581 63.4H969.781ZM1022.94 53.2C1018.88 53.2667 1015.24 54.0667 1012.04 55.6C1008.84 57.0667 1006.54 59.3 1005.14 62.3V94H991.745V41.6H1004.04V52.8C1004.98 51 1006.08 49.4 1007.34 48C1008.61 46.5333 1009.98 45.2667 1011.44 44.2C1012.91 43.1333 1014.38 42.3333 1015.84 41.8C1017.38 41.2 1018.84 40.9 1020.24 40.9C1020.98 40.9 1021.51 40.9 1021.84 40.9C1022.24 40.9 1022.61 40.9333 1022.94 41V53.2ZM1046.42 95C1041.02 95 1036.92 93.2667 1034.12 89.8C1031.32 86.3333 1029.92 81.2 1029.92 74.4V41.6H1043.32V71.5C1043.32 79.5667 1046.22 83.6 1052.02 83.6C1054.62 83.6 1057.12 82.8333 1059.52 81.3C1061.98 79.7 1063.98 77.3 1065.52 74.1V41.6H1078.92V78.6C1078.92 80 1079.15 81 1079.62 81.6C1080.15 82.2 1080.98 82.5333 1082.12 82.6V94C1080.78 94.2667 1079.65 94.4333 1078.72 94.5C1077.85 94.5667 1077.05 94.6 1076.32 94.6C1073.92 94.6 1071.95 94.0667 1070.42 93C1068.95 91.8667 1068.08 90.3333 1067.82 88.4L1067.52 84.2C1065.18 87.8 1062.18 90.5 1058.52 92.3C1054.85 94.1 1050.82 95 1046.42 95ZM1140.93 94H1127.53V64.6C1127.53 60.4 1126.8 57.3333 1125.33 55.4C1123.87 53.4667 1121.83 52.5 1119.23 52.5C1117.9 52.5 1116.53 52.7667 1115.13 53.3C1113.73 53.8333 1112.4 54.6 1111.13 55.6C1109.93 56.5333 1108.83 57.6667 1107.83 59C1106.83 60.3333 1106.1 61.8 1105.63 63.4V94H1092.23V41.6H1104.33V51.3C1106.27 47.9667 1109.07 45.3667 1112.73 43.5C1116.4 41.6333 1120.53 40.7 1125.13 40.7C1128.4 40.7 1131.07 41.3 1133.13 42.5C1135.2 43.7 1136.8 45.2667 1137.93 47.2C1139.07 49.1333 1139.83 51.3333 1140.23 53.8C1140.7 56.2667 1140.93 58.7667 1140.93 61.3V94ZM1173.08 94.3C1169.55 94.3 1166.35 93.6 1163.48 92.2C1160.62 90.8 1158.12 88.9 1155.98 86.5C1153.92 84.0333 1152.32 81.2 1151.18 78C1150.05 74.8 1149.48 71.4 1149.48 67.8C1149.48 64 1150.08 60.4667 1151.28 57.2C1152.48 53.9333 1154.15 51.0667 1156.28 48.6C1158.42 46.1333 1160.98 44.2 1163.98 42.8C1166.98 41.4 1170.28 40.7 1173.88 40.7C1177.95 40.7 1181.52 41.6333 1184.58 43.5C1187.65 45.3 1190.18 47.7333 1192.18 50.8V41.6H1203.88V91.5C1203.88 95.3667 1203.15 98.8333 1201.68 101.9C1200.22 104.967 1198.18 107.567 1195.58 109.7C1193.05 111.833 1189.98 113.467 1186.38 114.6C1182.85 115.733 1178.98 116.3 1174.78 116.3C1169.05 116.3 1164.22 115.333 1160.28 113.4C1156.42 111.533 1153.08 108.867 1150.28 105.4L1157.58 98.3C1159.58 100.767 1162.08 102.7 1165.08 104.1C1168.15 105.5 1171.38 106.2 1174.78 106.2C1176.85 106.2 1178.82 105.9 1180.68 105.3C1182.62 104.767 1184.32 103.9 1185.78 102.7C1187.25 101.5 1188.38 99.9667 1189.18 98.1C1190.05 96.2333 1190.48 94.0333 1190.48 91.5V84.9C1188.75 87.9 1186.32 90.2333 1183.18 91.9C1180.05 93.5 1176.68 94.3 1173.08 94.3ZM1177.58 83.6C1179.05 83.6 1180.45 83.3667 1181.78 82.9C1183.12 82.4333 1184.35 81.8 1185.48 81C1186.62 80.2 1187.62 79.2667 1188.48 78.2C1189.35 77.1333 1190.02 76 1190.48 74.8V62.3C1189.28 59.2333 1187.38 56.7667 1184.78 54.9C1182.25 53.0333 1179.58 52.1 1176.78 52.1C1174.72 52.1 1172.85 52.5667 1171.18 53.5C1169.52 54.3667 1168.08 55.5667 1166.88 57.1C1165.68 58.5667 1164.75 60.2667 1164.08 62.2C1163.48 64.1333 1163.18 66.1333 1163.18 68.2C1163.18 70.3333 1163.55 72.3333 1164.28 74.2C1165.02 76.0667 1166.02 77.7 1167.28 79.1C1168.62 80.5 1170.15 81.6 1171.88 82.4C1173.62 83.2 1175.52 83.6 1177.58 83.6Z" transform="translate(-4 -20)" fill="#032B3F"/>
</svg>
