<?xml version="1.0" encoding="utf-8"?>
<!-- Generator: Adobe Illustrator 16.0.0, SVG Export Plug-In . SVG Version: 6.00 Build 0)  -->
<!DOCTYPE svg PUBLIC "-//W3C//DTD SVG 1.1//EN" "http://www.w3.org/Graphics/SVG/1.1/DTD/svg11.dtd">
<svg version="1.1" id="Ebene_1" xmlns="http://www.w3.org/2000/svg" xmlns:xlink="http://www.w3.org/1999/xlink" x="0px" y="0px"
	 width="283.757px" height="65.209px" viewBox="0 0 283.757 65.209" enable-background="new 0 0 283.757 65.209"
	 xml:space="preserve">
<g>
	<path fill="#FFFFFF" d="M61.236,12.372V7.854c0-4.212-3.414-7.627-7.627-7.627H7.846c-4.212,0-7.627,3.415-7.627,7.627v4.519v33.56
		v7.687c0,4.211,3.415,7.627,7.627,7.627h45.763c4.213,0,7.627-3.416,7.627-7.627v-7.687V12.372z"/>
	<g>
		<g>
			<path d="M103.808,14.525c-6.503,0-9.666,3.481-9.666,10.645v8.381c0,6.968,3.13,10.649,9.053,10.649
				c2.828,0,6.099-1.285,8.219-2.486c0.094-0.052,0.207-0.062,0.304-0.025c0.101,0.035,0.181,0.114,0.219,0.213l0.648,1.687h6.296
				V2.348h-8.079v11.811c0,0.202-0.163,0.367-0.366,0.367L103.808,14.525L103.808,14.525z M110.802,21.805V35.29
				c0,0.124-0.061,0.238-0.163,0.305c-0.773,0.508-2.79,1.688-4.873,1.688c-2.352,0-3.546-1.257-3.546-3.732V25.17
				c0-2.44,1.226-3.732,3.546-3.732h4.669C110.639,21.438,110.802,21.602,110.802,21.805"/>
		</g>
		<g>
			<path d="M135.646,34.97c-0.175,0-0.317-0.102-0.355-0.255l-4.93-20.189h-8.162l8.092,29.061h10.707l8.089-29.061h-8.163
				l-4.922,20.189C135.964,34.868,135.822,34.97,135.646,34.97"/>
		</g>
		<g>
			<path d="M163.001,13.911c-8.244,0-12.424,3.891-12.424,11.563v6.978c0,7.904,4.243,11.748,12.977,11.748
				c4.178,0,8.285-0.908,10.773-1.771l-1.148-5.904c-2.572,0.723-6,1.188-8.771,1.188c-4.354,0-5.752-1.145-5.752-4.708v-0.859
				c0-0.2,0.164-0.364,0.367-0.364h15.664v-5.878C174.687,20.755,173.476,13.911,163.001,13.911 M167.101,25.537
				c0,0.201-0.164,0.365-0.367,0.365h-7.711c-0.203,0-0.367-0.164-0.367-0.365v-1.285c0-1.896,0.766-4.16,4.406-4.16
				c3.58,0,4.039,2.224,4.039,4.16V25.537z"/>
		</g>
		<g>
			<rect x="219.4" y="14.525" width="8.074" height="29.062"/>
		</g>
		<g>
			<path d="M243.896,25.772c-3.518-0.789-4.082-1.073-4.082-3.234c0-1.717,0.996-2.387,3.553-2.387c2.09,0,5.172,0.312,7.881,0.796
				l0.711-6.145c-2.76-0.651-6.76-0.893-8.653-0.893c-9.261,0-11.015,3.011-11.015,8.568c0,5.347,0.59,7.219,7.613,8.939
				c4.682,1.144,5.111,1.451,5.111,3.663c0,1.905-0.529,2.874-3.422,2.874c-3.748,0-7.033-0.768-8.721-1.249l-1.256,5.837
				c3.041,0.962,7.396,1.656,10.403,1.656c7.604,0,10.705-2.643,10.705-9.118C252.726,29.506,252.324,27.652,243.896,25.772"/>
		</g>
		<g>
			<path d="M264.345,31.78h15.664v-5.878c0-5.147-1.211-11.991-11.686-11.991c-8.246,0-12.427,3.891-12.427,11.563v6.978
				c0,7.904,4.246,11.748,12.978,11.748c4.178,0,8.287-0.908,10.774-1.771l-1.146-5.904c-2.574,0.723-6.002,1.188-8.773,1.188
				c-4.354,0-5.752-1.145-5.752-4.708v-0.859C263.978,31.944,264.142,31.78,264.345,31.78 M263.978,24.252
				c0-1.896,0.764-4.16,4.406-4.16c3.578,0,4.037,2.224,4.037,4.16v1.285c0,0.201-0.164,0.365-0.367,0.365h-7.709
				c-0.203,0-0.367-0.164-0.367-0.365V24.252L263.978,24.252z"/>
		</g>
		<g>
			<path d="M186.056,17.16c-0.109-0.043-0.193-0.136-0.223-0.25l-0.543-2.085h-6.693v28.762h7.973V25.143
				c0-0.076,0.023-0.149,0.066-0.212c2.059-2.897,6.391-3.711,7.818-3.903V14.59c-4.336,0.32-7.08,1.875-8.064,2.532
				C186.292,17.187,186.166,17.201,186.056,17.16"/>
		</g>
		<g>
			<path d="M209.738,35.694v-14.44c0-0.201,0.164-0.366,0.365-0.366h4.877v-6.363h-4.877c-0.201,0-0.365-0.164-0.365-0.366V5.175
				h-8.078v8.983c0,0.202-0.166,0.366-0.367,0.366h-3.672v6.363h3.672c0.201,0,0.367,0.165,0.367,0.366v15.664
				c0,4.968,2.74,7.282,8.631,7.282c1.486,0,3.23-0.248,4.922-0.697v-6.204c-1.391,0.371-2.741,0.413-3.27,0.413
				C210.025,37.712,209.738,36.448,209.738,35.694"/>
		</g>
		<g>
			<path d="M79.224,13.847c-2.862,0-7.096,0.658-10.108,1.567l1.264,5.848c1.642-0.45,4.828-1.17,8.418-1.17
				c2.895,0,3.425,0.969,3.425,2.875v4.16c0,0.201-0.166,0.366-0.367,0.366h-6.674c-6.041,0-8.505,2.321-8.505,8.017
				c0,5.523,2.699,8.69,7.406,8.69c1.145,0,4.237-0.235,8.226-2.414c0.096-0.053,0.21-0.059,0.311-0.02
				c0.103,0.041,0.181,0.125,0.213,0.228l0.515,1.593h6.587v-20.62C89.934,16.489,86.832,13.847,79.224,13.847 M81.975,36.673
				c0,0.145-0.083,0.273-0.214,0.333c-1.42,0.646-2.75,1.076-4.621,1.076c-1.902,0-2.751-0.831-2.751-2.694
				c0-2.08,1.197-2.508,2.996-2.508h4.225c0.202,0,0.366,0.164,0.366,0.366L81.975,36.673L81.975,36.673z"/>
		</g>
		<g>
			<rect x="219.4" y="2.441" width="8.074" height="7.709"/>
		</g>
		<g>
			<g>
				<rect x="219.447" y="2.441" width="8.078" height="7.711"/>
			</g>
		</g>
	</g>
	<g>
		<g>
			<path fill="#0085B4" d="M56.456,44.089c-0.294,0.166-0.603,0.321-0.927,0.469l-0.003,0.002c-0.436,0.196-0.896,0.375-1.377,0.53
				c-0.252,0.08-0.51,0.154-0.772,0.222l-0.001,0.002c-0.048,0.013-0.098,0.023-0.146,0.037c-0.071,0.018-0.14,0.034-0.213,0.053
				c-0.655,0.152-1.337,0.264-2.036,0.326c-1.236,0.112-2.391,0.061-3.417-0.129l0,0c-1.103-0.201-2.054-0.561-2.781-1.041
				l-0.002-0.002c-0.119-0.078-0.23-0.16-0.339-0.246c-0.276-0.221-0.511-0.463-0.7-0.725c-0.115-0.16-0.211-0.329-0.29-0.503
				c-0.152-0.313-0.275-0.664-0.369-1.047c-0.323-1.318-0.3-3.021,0.048-4.911l1.767-9.542l0.084-0.458
				c0.586-3.427-0.09-6.289-1.688-6.662c-1-0.234-2.153,0.561-3.15,1.997c-0.79,1.14-1.485,2.68-1.931,4.435
				C38.118,27.268,34.9,44.558,34.9,44.558H23.27l3.214-17.336c0.614-3.468-0.06-6.379-1.671-6.755
				c-1.018-0.237-2.19,0.588-3.199,2.07c-0.771,1.131-1.444,2.644-1.882,4.361c-0.095,0.372-3.312,17.659-3.312,17.659H4.793
				l3.812-20.558c0.315-1.986-0.062-3.569-1.167-4.139c-1.856-0.956-5.065,1.298-7.219,5.045v28.712
				c0,4.211,3.415,7.627,7.627,7.627h45.763c4.213,0,7.627-3.416,7.627-7.627V38.401C60.062,41.06,58.371,43.052,56.456,44.089z"/>
		</g>
		<g>
			<path fill="#0085B4" d="M53.609,0.227H7.846c-4.212,0-7.627,3.415-7.627,7.627v13.583c2.704-4.126,6.549-6.909,10.3-7.753
				c2.215-0.499,4.398-0.321,6.293,0.655c2.069,1.066,3.499,2.937,4.242,5.247c2.206-2.948,5.047-4.997,7.919-5.782
				c1.874-0.514,3.764-0.486,5.5,0.188c2.425,0.94,4.149,2.987,5.05,5.632l0.003-0.004c2.206-2.961,5.05-5.023,7.927-5.813
				c1.877-0.516,3.771-0.489,5.509,0.186c1.555,0.603,2.809,1.584,3.71,3.013c0.525,0.767,0.897,1.66,1.17,2.627
				c1.226,3.756,0.045,10.045-0.991,12.812c-0.534,1.424-0.875,3.106-0.43,4.333c0.117,0.339,0.291,0.605,0.528,0.785
				c0.356,0.268,0.813,0.305,1.324,0.145c0.9-0.281,1.969-1.17,2.964-2.482V7.854C61.236,3.642,57.822,0.227,53.609,0.227z"/>
		</g>
	</g>
	<g enable-background="new    ">
		<path d="M94.292,51.676v-1.837h1.275v1.837H94.292z M94.292,60.254V52.86h1.275v7.394H94.292z"/>
		<path d="M102.46,60.254v-5.647c0-0.486-0.243-0.684-0.713-0.684c-0.547,0-1.686,0.334-2.475,0.744v5.587h-1.275V52.86h1.032
			l0.122,0.638c0.82-0.396,2.095-0.79,2.976-0.79c1.184,0,1.609,0.744,1.609,1.883v5.663H102.46z"/>
		<path d="M110.555,60.254v-5.647c0-0.486-0.243-0.684-0.713-0.684c-0.547,0-1.686,0.334-2.475,0.744v5.587h-1.275V52.86h1.033
			l0.122,0.638c0.82-0.396,2.095-0.79,2.976-0.79c1.184,0,1.609,0.744,1.609,1.883v5.663H110.555z"/>
		<path d="M116.812,60.405c-2.156,0-3.006-1.229-3.006-2.778v-2.141c0-1.549,0.85-2.778,3.006-2.778
			c2.156,0,3.006,1.229,3.006,2.778v2.141C119.817,59.176,118.967,60.405,116.812,60.405z M116.812,53.816
			c-1.154,0-1.731,0.547-1.731,1.625v2.231c0,1.078,0.577,1.625,1.731,1.625s1.73-0.547,1.73-1.625v-2.231
			C118.542,54.363,117.965,53.816,116.812,53.816z"/>
		<path d="M126.029,52.86h1.26l-2.444,7.394h-1.7L120.7,52.86h1.26l2.034,6.346L126.029,52.86z"/>
		<path d="M133.744,60.254h-1.078l-0.076-0.547c-0.653,0.456-1.503,0.698-2.399,0.698c-1.382,0-1.958-0.819-1.958-2.125
			c0-1.533,0.774-2.08,2.262-2.08h1.974v-1.154c0-0.926-0.41-1.244-1.609-1.244c-0.713,0-1.64,0.121-2.217,0.242l-0.136-1.017
			c0.698-0.183,1.64-0.319,2.429-0.319c2.111,0,2.809,0.82,2.809,2.399V60.254z M132.468,57.263h-1.883
			c-0.79,0-1.078,0.243-1.078,0.987c0,0.759,0.137,1.062,1.047,1.062c0.638,0,1.351-0.243,1.913-0.607V57.263z"/>
		<path d="M139.849,60.133c-0.455,0.167-1.002,0.272-1.548,0.272c-1.245,0-1.837-0.455-1.837-1.685v-4.798h-1.306V52.86h1.306
			v-1.822l1.275-0.183v2.005h2.095l-0.106,1.062h-1.989v4.585c0,0.547,0.076,0.82,0.759,0.82c0.349,0,0.713-0.062,1.184-0.183
			L139.849,60.133z"/>
		<path d="M141.596,51.676v-1.837h1.275v1.837H141.596z M141.596,60.254V52.86h1.275v7.394H141.596z"/>
		<path d="M149.765,60.254v-5.647c0-0.486-0.243-0.684-0.714-0.684c-0.547,0-1.686,0.334-2.476,0.744v5.587H145.3V52.86h1.033
			l0.121,0.638c0.82-0.396,2.096-0.79,2.977-0.79c1.184,0,1.609,0.744,1.609,1.883v5.663H149.765z"/>
		<path d="M159.119,53.604l-0.881,0.167c0.273,0.38,0.396,0.896,0.41,1.474v0.334c0,1.594-0.971,2.52-2.899,2.52
			c-0.273,0-0.531-0.015-0.759-0.045c-0.258,0.212-0.531,0.471-0.531,0.789c0,0.289,0.151,0.395,0.485,0.425
			c0.774,0.076,1.169,0.122,2.095,0.213c1.336,0.137,1.853,0.653,1.853,1.776c0,1.609-0.562,2.141-3.233,2.141
			c-0.684,0-1.853-0.121-2.688-0.349l0.182-1.002c0.775,0.182,1.731,0.303,2.475,0.303c1.883,0,2.065-0.258,2.065-1.032
			c0-0.622-0.228-0.729-1.093-0.805c-0.82-0.075-1.094-0.106-1.959-0.182c-1.094-0.092-1.442-0.668-1.442-1.352
			c0-0.547,0.304-1.002,0.698-1.306c-0.698-0.395-1.032-1.123-1.032-2.095v-0.334c0-1.609,0.774-2.536,2.885-2.536
			c0.38,0,0.896,0.046,1.245,0.152h2.125V53.604z M155.749,53.756c-1.229,0-1.685,0.41-1.685,1.503v0.319
			c0,1.123,0.471,1.473,1.685,1.473c1.215,0,1.685-0.501,1.685-1.473v-0.319C157.433,54.181,156.978,53.756,155.749,53.756z"/>
		<path d="M173.029,60.254v-5.647c0-0.486-0.244-0.684-0.715-0.684c-0.607,0-1.685,0.334-2.475,0.744v5.587h-1.275v-5.647
			c0-0.486-0.242-0.684-0.713-0.684c-0.547,0-1.686,0.334-2.475,0.744v5.587h-1.275V52.86h1.032l0.122,0.638
			c0.819-0.396,2.095-0.79,2.975-0.79c0.76,0,1.199,0.289,1.412,0.79c0.881-0.426,2.126-0.79,3.053-0.79
			c1.184,0,1.609,0.744,1.609,1.883v5.663H173.029z"/>
		<path d="M179.287,60.405c-2.156,0-3.006-1.229-3.006-2.778v-2.141c0-1.549,0.85-2.778,3.006-2.778s3.006,1.229,3.006,2.778v2.141
			C182.292,59.176,181.443,60.405,179.287,60.405z M179.287,53.816c-1.154,0-1.73,0.547-1.73,1.625v2.231
			c0,1.078,0.576,1.625,1.73,1.625s1.73-0.547,1.73-1.625v-2.231C181.017,54.363,180.441,53.816,179.287,53.816z"/>
		<path d="M190.128,57.643c0,1.686-0.607,2.763-3.143,2.763c-0.684,0-1.791-0.091-2.643-0.288V49.839l1.275-0.183v3.568
			c0.518-0.273,1.397-0.517,2.339-0.517c1.533,0,2.171,0.896,2.171,2.308V57.643z M185.619,59.176
			c0.502,0.076,1.003,0.106,1.458,0.106c1.503,0,1.776-0.607,1.776-1.594v-2.718c0-0.76-0.334-1.139-1.199-1.139
			c-0.652,0-1.533,0.318-2.035,0.562V59.176z"/>
		<path d="M192.226,51.676v-1.837h1.274v1.837H192.226z M192.226,60.254V52.86h1.274v7.394H192.226z"/>
		<path d="M195.931,60.254V49.839l1.275-0.183v10.598H195.931z"/>
		<path d="M202.292,59.312c0.729,0,1.533-0.137,2.338-0.349l0.168,1.017c-0.699,0.258-1.686,0.425-2.611,0.425
			c-2.187,0-2.931-1.047-2.931-2.717v-2.217c0-1.534,0.698-2.764,2.899-2.764c2.188,0,2.779,1.261,2.779,2.794v1.549h-4.403v0.622
			C200.532,58.842,200.851,59.312,202.292,59.312z M200.532,55.987h3.173V55.38c0-1.032-0.35-1.609-1.549-1.609
			s-1.624,0.577-1.624,1.609V55.987z"/>
		<path d="M215.443,60.254h-1.078l-0.075-0.547c-0.653,0.456-1.503,0.698-2.399,0.698c-1.381,0-1.958-0.819-1.958-2.125
			c0-1.533,0.774-2.08,2.263-2.08h1.973v-1.154c0-0.926-0.41-1.244-1.609-1.244c-0.713,0-1.639,0.121-2.217,0.242l-0.137-1.017
			c0.699-0.183,1.641-0.319,2.43-0.319c2.111,0,2.809,0.82,2.809,2.399V60.254z M214.167,57.263h-1.883
			c-0.789,0-1.077,0.243-1.077,0.987c0,0.759,0.137,1.062,1.048,1.062c0.637,0,1.352-0.243,1.912-0.607V57.263z"/>
		<path d="M217.419,55.122c0-1.473,0.668-2.414,2.398-2.414c0.652,0,1.518,0.106,2.11,0.228v-3.097l1.275-0.183v10.598h-1.078
			l-0.106-0.668c-0.607,0.485-1.473,0.819-2.444,0.819c-1.458,0-2.155-0.773-2.155-2.262V55.122z M221.928,54.06
			c-0.684-0.137-1.519-0.228-2.034-0.228c-0.851,0-1.199,0.395-1.199,1.29v3.021c0,0.759,0.242,1.139,1.139,1.139
			c0.729,0,1.548-0.395,2.095-0.881V54.06z"/>
		<path d="M229.871,52.86h1.26l-2.445,7.394h-1.699l-2.445-7.394h1.261l2.034,6.346L229.871,52.86z"/>
		<path d="M235.125,59.312c0.729,0,1.533-0.137,2.338-0.349l0.168,1.017c-0.699,0.258-1.686,0.425-2.611,0.425
			c-2.187,0-2.931-1.047-2.931-2.717v-2.217c0-1.534,0.698-2.764,2.899-2.764c2.188,0,2.779,1.261,2.779,2.794v1.549h-4.403v0.622
			C233.364,58.842,233.683,59.312,235.125,59.312z M233.364,55.987h3.173V55.38c0-1.032-0.35-1.609-1.549-1.609
			s-1.624,0.577-1.624,1.609V55.987z"/>
		<path d="M243.158,53.877c-0.698,0.334-1.503,0.851-2.11,1.275v5.102h-1.274V52.86h1.107l0.076,1.032
			c0.547-0.425,1.306-0.881,2.034-1.185L243.158,53.877z"/>
		<path d="M248.427,60.133c-0.455,0.167-1.002,0.272-1.549,0.272c-1.244,0-1.837-0.455-1.837-1.685v-4.798h-1.306V52.86h1.306
			v-1.822l1.275-0.183v2.005h2.095l-0.105,1.062h-1.989v4.585c0,0.547,0.076,0.82,0.759,0.82c0.35,0,0.714-0.062,1.185-0.183
			L248.427,60.133z"/>
		<path d="M250.175,51.676v-1.837h1.274v1.837H250.175z M250.175,60.254V52.86h1.274v7.394H250.175z"/>
		<path d="M255.929,60.405c-0.76,0-1.762-0.167-2.354-0.395l0.168-1.002c0.637,0.183,1.473,0.304,2.109,0.304
			c1.17,0,1.367-0.213,1.367-1.002s-0.061-0.881-1.549-1.245c-1.838-0.455-2.004-0.835-2.004-2.368c0-1.366,0.607-1.989,2.551-1.989
			c0.713,0,1.487,0.091,2.095,0.259l-0.091,1.047c-0.623-0.121-1.443-0.212-2.05-0.212c-1.093,0-1.245,0.258-1.245,0.926
			c0,0.819,0.016,0.972,1.26,1.275c2.126,0.531,2.293,0.789,2.293,2.262C258.48,59.707,258.04,60.405,255.929,60.405z"/>
		<path d="M260.546,51.676v-1.837h1.275v1.837H260.546z M260.546,60.254V52.86h1.275v7.394H260.546z"/>
		<path d="M268.714,60.254v-5.647c0-0.486-0.242-0.684-0.713-0.684c-0.547,0-1.686,0.334-2.475,0.744v5.587h-1.275V52.86h1.032
			l0.122,0.638c0.819-0.396,2.095-0.79,2.975-0.79c1.185,0,1.609,0.744,1.609,1.883v5.663H268.714z"/>
		<path d="M278.07,53.604l-0.881,0.167c0.273,0.38,0.395,0.896,0.41,1.474v0.334c0,1.594-0.973,2.52-2.9,2.52
			c-0.273,0-0.531-0.015-0.76-0.045c-0.258,0.212-0.531,0.471-0.531,0.789c0,0.289,0.152,0.395,0.486,0.425
			c0.774,0.076,1.169,0.122,2.096,0.213c1.336,0.137,1.852,0.653,1.852,1.776c0,1.609-0.562,2.141-3.234,2.141
			c-0.683,0-1.852-0.121-2.687-0.349l0.183-1.002c0.773,0.182,1.73,0.303,2.475,0.303c1.883,0,2.064-0.258,2.064-1.032
			c0-0.622-0.228-0.729-1.094-0.805c-0.819-0.075-1.092-0.106-1.958-0.182c-1.093-0.092-1.442-0.668-1.442-1.352
			c0-0.547,0.304-1.002,0.699-1.306c-0.699-0.395-1.033-1.123-1.033-2.095v-0.334c0-1.609,0.774-2.536,2.885-2.536
			c0.379,0,0.896,0.046,1.245,0.152h2.126V53.604z M274.699,53.756c-1.23,0-1.686,0.41-1.686,1.503v0.319
			c0,1.123,0.471,1.473,1.686,1.473s1.686-0.501,1.686-1.473v-0.319C276.384,54.181,275.929,53.756,274.699,53.756z"/>
	</g>
</g>
</svg>
