<?xml version="1.0" encoding="UTF-8"?>
<svg width="1080px" height="468px" viewBox="0 0 1080 468" version="1.1" xmlns="http://www.w3.org/2000/svg" xmlns:xlink="http://www.w3.org/1999/xlink">
    <!-- Generator: Sketch 49.3 (51167) - http://www.bohemiancoding.com/sketch -->
    <title>OrgOS_logo</title>
    <desc>Created with Sketch.</desc>
    <defs>
        <linearGradient x1="-14.6786702%" y1="100%" x2="105.386347%" y2="-4.95201772%" id="linearGradient-1">
            <stop stop-color="#67D9FF" offset="0%"></stop>
            <stop stop-color="#36D693" offset="100%"></stop>
        </linearGradient>
    </defs>
    <g id="OrgOS_logo" stroke="none" stroke-width="1" fill="none" fill-rule="evenodd">
        <g id="Group-Copy" transform="translate(116.000000, 107.000000)">
            <path d="M0,96.683871 C0,43.1526882 40.8649912,0 93.559322,0 C146.522501,0 187.656341,43.1526882 187.656341,96.683871 C187.656341,149.941935 146.522501,193.094624 93.559322,193.094624 C40.8649912,193.094624 0,149.941935 0,96.683871 Z M25.0029223,96.683871 C25.0029223,136.55914 54.8451198,168.513978 93.559322,168.513978 C132.542373,168.513978 162.38457,136.55914 162.38457,96.683871 C162.38457,56.8086022 132.542373,24.5806452 93.559322,24.5806452 C54.8451198,24.5806452 25.0029223,56.8086022 25.0029223,96.683871 Z M251.104617,143.933333 C251.104617,110.066667 261.320865,83.8473118 285.517241,83.8473118 C290.625365,83.8473118 297.346581,84.9397849 304.067797,88.2172043 L307.831677,65.0021505 C304.336645,62.544086 294.926943,60.0860215 286.054939,60.0860215 C269.655172,60.0860215 257.556984,69.0989247 251.104617,91.4946237 L251.104617,62.8172043 L226.639392,62.8172043 L226.639392,190.363441 L251.104617,190.363441 L251.104617,143.933333 Z M355.149036,208.662366 C362.676797,222.864516 377.463472,230.511828 391.4436,230.511828 C418.597312,230.511828 436.072472,214.944086 436.072472,172.610753 C436.072472,171.51828 435.803624,170.698925 435.803624,169.606452 C428.275862,184.627957 409.18761,193.094624 391.712449,193.094624 C357.299825,193.094624 327.995324,167.421505 327.995324,127 C327.995324,86.3053763 357.299825,60.0860215 391.712449,60.0860215 C409.18761,60.0860215 427.469316,68.0064516 435.803624,82.7548387 L435.803624,62.8172043 L460,62.8172043 L460,170.972043 C460,231.058065 432.846289,254 391.4436,254 C368.322618,254 346.814728,241.982796 334.71654,219.587097 C337.942724,218.221505 351.922852,210.301075 355.149036,208.662366 Z M435.534775,126.726882 C435.534775,99.4150538 416.177674,84.3935484 393.863238,84.3935484 C371.279953,84.3935484 352.998247,101.873118 352.998247,126.726882 C352.998247,152.673118 371.279953,168.787097 393.863238,168.787097 C414.026885,168.787097 435.534775,153.765591 435.534775,126.726882 Z" id="OrgOS" fill="#333333"></path>
            <path d="M504,99.1400283 C504,44.2489392 544.939828,0 597.730659,0 C650.790831,0 692,44.2489392 692,99.1400283 C692,153.751061 650.790831,198 597.730659,198 C544.939828,198 504,153.751061 504,99.1400283 Z M529.048711,99.1400283 C529.048711,140.028289 558.945559,172.794908 597.730659,172.794908 C636.7851,172.794908 666.681948,140.028289 666.681948,99.1400283 C666.681948,58.251768 636.7851,25.2050919 597.730659,25.2050919 C558.945559,25.2050919 529.048711,58.251768 529.048711,99.1400283 Z" id="Combined-Shape" fill="url(#linearGradient-1)"></path>
            <path d="M748.998217,139.468175 L725,139.468175 C725,169.714286 750.804534,198 787.188927,198 C822.025048,198 843.442812,175.315417 846.539356,147.589816 C850.151991,116.783593 832.346862,96.3394625 799.059013,87.0975955 L775.834932,80.9363508 C753.384988,75.0551627 750.546489,62.4526167 750.546489,54.0509194 C750.546489,36.407355 766.5453,24.9250354 783.834338,24.9250354 C803.187738,24.9250354 817.380232,37.2475248 817.380232,56.5714286 L841.378449,56.5714286 C841.378449,21.844413 816.606096,0 784.092383,0 C753.901078,0 726.548272,21.844413 726.548272,54.330976 C726.548272,71.1343706 732.22527,94.3790665 769.899889,104.74116 L792.865925,110.902405 C808.864736,114.823197 824.605502,124.625177 823.05723,145.349364 C820.992867,159.912306 809.896917,173.635078 787.188927,173.635078 C764.738983,173.635078 749.256262,156.27157 748.998217,139.468175 Z" id="Path" fill="url(#linearGradient-1)"></path>
        </g>
    </g>
</svg>