<?xml version="1.0" encoding="UTF-8"?>
<svg width="167px" height="32px" viewBox="0 0 167 32" version="1.1" xmlns="http://www.w3.org/2000/svg" xmlns:xlink="http://www.w3.org/1999/xlink">
    <!-- Generator: Sketch 62 (91390) - https://sketch.com -->
    <title>Logo/Orange</title>
    <desc>Created with Sketch.</desc>
    <defs>
        <polygon id="path-1" points="0 0 31.9653432 0 31.9653432 30.9332267 0 30.9332267"></polygon>
    </defs>
    <g id="Symbols" stroke="none" stroke-width="1" fill="none" fill-rule="evenodd">
        <g id="Comp/Header" transform="translate(-12.000000, -21.000000)">
            <g id="Logo/Orange">
                <g transform="translate(12.000000, 21.000000)">
                    <g id="Logo" transform="translate(0.000000, 0.533333)">
                        <g id="Group-3">
                            <mask id="mask-2" fill="white">
                                <use xlink:href="#path-1"></use>
                            </mask>
                            <g id="Clip-2"></g>
                            <path d="M15.9834983,1.95456 C8.28275908,1.95456 2.01888119,8.01642667 2.01888119,15.4676267 C2.01888119,22.91776 8.28275908,28.97856 15.9834983,28.97856 C23.6825842,28.97856 29.946462,22.91776 29.946462,15.4676267 C29.946462,8.01642667 23.6825842,1.95456 15.9834983,1.95456 M15.9834983,30.9332267 C7.17052805,30.9332267 0,23.9950933 0,15.4676267 C0,6.93909333 7.17052805,-0.000106666667 15.9834983,-0.000106666667 C24.7953663,-0.000106666667 31.9653432,6.93909333 31.9653432,15.4676267 C31.9653432,23.9950933 24.7953663,30.9332267 15.9834983,30.9332267" id="Fill-1" fill="#F29100" mask="url(#mask-2)"></path>
                        </g>
                        <polygon id="Fill-4" fill="#F29100" points="18.8728739 10.06608 15.9958442 19.2522133 13.1177122 10.06608 10.686567 10.06608 14.8621182 22.1007467 17.128468 22.1007467 21.3045703 10.06608"></polygon>
                        <polygon id="Fill-5" fill="#F29100" points="41.8806238 22.1082667 44.0709142 22.1082667 44.0709142 10.0736 41.8806238 10.0736"></polygon>
                        <polygon id="Fill-6" fill="#F29100" points="68.0904195 22.1083733 68.0904195 10.0737067 65.5903799 10.0737067 62.5728056 17.8065067 59.5563337 10.0737067 57.0551917 10.0737067 57.0551917 22.1083733 59.2454822 22.1083733 59.2454822 14.2593067 61.7791422 20.9953067 63.3659178 20.9953067 65.8995779 14.2593067 65.8995779 22.1083733"></polygon>
                        <path d="M86.5192277,19.23824 L86.5352112,19.2883733 L87.4363498,22.10864 L89.7958449,22.10864 L85.585571,10.0739733 L83.354495,10.0739733 L79.1431188,22.10864 L81.5026139,22.10864 L82.4191848,19.23824 L86.5192277,19.23824 Z M84.4694818,12.74864 L85.8991782,17.2921067 L83.0392343,17.2921067 L84.4694818,12.74864 Z" id="Fill-7" fill="#F29100"></path>
                        <polygon id="Fill-8" fill="#F29100" points="107.631996 22.1083733 109.978815 22.1083733 109.978815 10.0737067 107.788524 10.0737067 107.788524 18.3153067 107.650735 18.07424 103.051346 10.0737067 100.705079 10.0737067 100.705079 22.1083733 102.894267 22.1083733 102.894267 13.8667733 103.032055 14.1073067"></polygon>
                        <polygon id="Fill-9" fill="#F29100" points="130.453841 10.07376 121.287029 10.07376 121.287029 12.01776 124.775841 12.01776 124.775841 22.1084267 126.965581 22.1084267 126.965581 12.01776 130.453841 12.01776"></polygon>
                        <polygon id="Fill-10" fill="#F29100" points="142.141802 22.1082667 144.332644 22.1082667 144.332644 10.0736 142.141802 10.0736"></polygon>
                        <path d="M164.655551,18.1937067 C164.080697,19.5937067 163.020274,20.3025067 161.50074,20.3025067 C160.448033,20.3025067 159.564532,19.93824 158.87669,19.2187733 C158.194911,18.4881067 157.849888,17.43584 157.849888,16.0907733 C157.849888,14.7457067 158.194911,13.69344 158.875588,12.96384 C159.564532,12.2433067 160.446931,11.8785067 161.50074,11.8785067 C163.019172,11.8785067 164.080697,12.5883733 164.655551,13.98784 L166.624829,13.4987733 C166.021314,11.23264 164.157858,9.93450667 161.50074,9.93450667 C159.868769,9.93450667 158.464977,10.4833067 157.328495,11.5665067 C156.197525,12.64384 155.623773,14.1659733 155.623773,16.0907733 C155.623773,18.0155733 156.197525,19.5377067 157.328495,20.61504 C158.464977,21.69824 159.868769,22.2481067 161.50074,22.2481067 C164.157858,22.2481067 166.021865,20.94944 166.624829,18.68224 L164.655551,18.1937067 Z" id="Fill-11" fill="#F29100"></path>
                    </g>
                </g>
            </g>
        </g>
    </g>
</svg>