<svg width="451" height="120" viewBox="0 0 451 120" fill="none" xmlns="http://www.w3.org/2000/svg">
<path d="M60 120C93.1371 120 120 93.1371 120 60C120 51.6888 118.31 43.7724 115.255 36.5754C110.301 47.3782 103.813 58.6088 99.5304 64.2361C95.7241 69.2372 91.7103 74.3635 85.9364 79.1542L85.882 79.1994C84.9065 80.009 83.069 81.534 80.8556 82.7474C78.6203 83.9728 75.0577 85.4163 70.791 84.838C66.7499 84.2902 63.8588 81.9693 62.1006 79.3867C60.8155 77.4989 60.1143 75.4728 59.7021 73.7813C59.0022 74.413 58.2402 75.1007 57.2872 75.9298C55.2904 77.6671 52.9159 79.5873 50.0089 81.2765L49.9321 81.3262C49.7582 81.4386 49.5068 81.6004 49.2067 81.7886C48.6241 82.1539 47.7864 82.6639 46.881 83.1512C46.1036 83.5696 44.755 84.26 43.2773 84.6911C42.627 84.8808 41.1037 85.2849 39.2399 85.1111C37.0895 84.9107 33.2704 83.6918 31.4502 79.515C30.4706 77.2669 30.08 74.9805 29.8756 73.3868C29.7299 72.251 29.6241 70.9102 29.5537 70.0199C29.5308 69.7289 29.5116 69.4861 29.4961 69.3143C29.2084 66.1303 29.075 62.9625 29.0148 59.8686C28.2035 60.2994 27.1589 60.93 25.3362 62.1256C21.1799 64.8518 15.6006 63.6925 12.8744 59.5362C10.1483 55.38 11.3076 49.8006 15.4638 47.0745C18.1632 45.3039 20.044 44.1701 22.1729 43.1718C23.577 42.5134 25.1336 41.9043 26.9161 41.2069C27.5131 40.9733 28.1357 40.7297 28.7861 40.4711C28.7011 40.5045 30.4566 39.7467 32.0025 39.2668C32.7901 39.0223 34.0525 38.6716 35.4615 38.546C36.1727 38.4826 37.2552 38.4435 38.5005 38.6681C39.7256 38.8891 41.685 39.4726 43.4653 41.1189C45.4074 42.9149 46.1975 45.0176 46.5421 46.2734C46.9021 47.5853 46.9941 48.7808 47.0231 49.5636C47.0535 50.3853 47.024 51.128 47.0024 51.5889C46.9707 52.2634 46.9703 52.2041 46.9703 52.1977C46.9642 55.2293 46.9664 58.1282 47.045 60.9512L47.1494 60.8575C48.4194 59.7175 49.9302 58.3613 51.284 57.2482C50.9585 57.5159 52.7949 55.8937 54.5708 54.6105C55.5132 53.9295 56.7429 53.1082 58.1001 52.4172C59.2467 51.8334 61.4754 50.8146 64.1688 50.7567C67.2837 50.6897 70.6329 51.5983 73.2509 54.1003C75.7703 56.508 76.8 59.634 76.8 62.4L76.8 62.6307C76.8 62.7302 76.7999 62.8292 76.8 62.9275C76.8 63.0186 76.8 63.1092 76.8001 63.1993C79.7407 60.384 82.2245 57.2535 85.2071 53.3347C90.0681 46.9477 99.5315 29.647 103.199 18.3602C92.2856 7.04101 76.965 0 60 0C26.8629 0 0 26.8629 0 60C0 93.1371 26.8629 120 60 120Z" fill="#111616"/>
<path d="M197.184 79.832L207.552 43.544H218.976L204 91.544H191.232L181.44 57.848L171.84 91.544H158.976L144 43.544H155.616L165.696 80.312L175.776 43.544H187.392L197.184 79.832Z" fill="#111616"/>
<path d="M265.949 76.376C264.541 81.496 261.789 85.528 257.693 88.472C253.597 91.416 248.573 92.888 242.621 92.888C237.693 92.888 233.373 91.832 229.661 89.72C225.949 87.608 223.101 84.664 221.117 80.888C219.133 77.048 218.141 72.6 218.141 67.544C218.141 62.488 219.133 58.04 221.117 54.2C223.165 50.36 226.045 47.416 229.757 45.368C233.533 43.256 237.917 42.2 242.909 42.2C247.453 42.2 251.389 43.064 254.717 44.792C258.109 46.52 260.701 48.92 262.493 51.992C264.285 55.064 265.181 58.584 265.181 62.552C265.181 65.24 264.765 67.928 263.933 70.616H229.757C230.269 74.648 231.613 77.784 233.789 80.024C236.029 82.2 239.037 83.288 242.813 83.288C245.501 83.288 247.837 82.68 249.821 81.464C251.805 80.248 253.213 78.552 254.045 76.376H265.949ZM242.717 51.416C239.133 51.416 236.253 52.408 234.077 54.392C231.901 56.312 230.525 59.128 229.949 62.84H253.565C253.629 62.52 253.661 62.04 253.661 61.4C253.661 58.328 252.701 55.896 250.781 54.104C248.861 52.312 246.173 51.416 242.717 51.416Z" fill="#111616"/>
<path d="M294.319 38.264C294.703 37.112 294.895 36.12 294.895 35.288C294.895 33.176 293.967 32.12 292.111 32.12C290.831 32.12 289.871 32.632 289.231 33.656C288.591 34.68 288.271 36.12 288.271 37.976V43.544H303.919V53.048H288.271V91.544H277.327V53.048H268.207V43.544H277.327V37.976C277.327 33.24 278.607 29.56 281.167 26.936C283.791 24.312 287.503 23 292.303 23C296.271 23 299.311 23.928 301.423 25.784C303.599 27.64 304.687 30.168 304.687 33.368C304.687 34.776 304.431 36.408 303.919 38.264H294.319Z" fill="#111616"/>
<path d="M321.024 91.544H310.08V24.344H321.024V91.544Z" fill="#111616"/>
<path d="M351.494 92.888C346.63 92.888 342.342 91.832 338.63 89.72C334.982 87.608 332.134 84.632 330.086 80.792C328.038 76.952 327.014 72.536 327.014 67.544C327.014 62.552 328.038 58.136 330.086 54.296C332.134 50.456 334.982 47.48 338.63 45.368C342.342 43.256 346.63 42.2 351.494 42.2C356.294 42.2 360.55 43.256 364.262 45.368C367.974 47.48 370.854 50.456 372.902 54.296C374.95 58.136 375.974 62.552 375.974 67.544C375.974 72.536 374.95 76.952 372.902 80.792C370.854 84.632 367.974 87.608 364.262 89.72C360.55 91.832 356.294 92.888 351.494 92.888ZM351.494 83.288C355.398 83.288 358.534 81.848 360.902 78.968C363.334 76.088 364.55 72.28 364.55 67.544C364.55 62.808 363.334 59 360.902 56.12C358.534 53.24 355.398 51.8 351.494 51.8C347.526 51.8 344.358 53.24 341.99 56.12C339.622 59 338.438 62.808 338.438 67.544C338.438 72.28 339.622 76.088 341.99 78.968C344.358 81.848 347.526 83.288 351.494 83.288Z" fill="#111616"/>
<path d="M428.36 79.832L438.728 43.544H450.152L435.176 91.544H422.408L412.616 57.848L403.016 91.544H390.152L375.176 43.544H386.792L396.872 80.312L406.952 43.544H418.568L428.36 79.832Z" fill="#111616"/>
</svg>
