<?xml version="1.0" encoding="UTF-8"?>
<svg width="73px" height="29px" viewBox="0 0 73 29" version="1.1" xmlns="http://www.w3.org/2000/svg" xmlns:xlink="http://www.w3.org/1999/xlink">
    <defs>
        <radialGradient cx="50%" cy="18.9871326%" fx="50%" fy="18.9871326%" r="79.6033442%" id="radialGradient-1">
            <stop stop-color="#FFCF00" offset="0%"></stop>
            <stop stop-color="#FFD600" offset="100%"></stop>
        </radialGradient>
    </defs>
    <g id="Assets" stroke="none" stroke-width="1" fill="none" fill-rule="evenodd">
        <g id="logo">
            <g id="Group-7">
                <g id="Page-1">
                    <g id="Group-24" transform="translate(0.000000, 0.290242)">
                        <path d="M10.561064,15.7074865 L7.49840704,13.7094068 L7.39354115,13.7757854 L0.373030584,9.49435522 L0.373030584,19.4615338 C0.372700011,19.4823024 0.372700012,19.5030712 0.373030584,19.5238382 L0.373030584,19.5564255 C0.373030584,19.5564255 0.373302108,19.5566592 0.373842978,19.5571241 C0.399032779,20.3219819 0.872756002,21.0820248 1.79501327,21.6658005 L11.1377102,27.5791448 C13.0333092,28.7794801 16.1076367,28.7794801 18.0032358,27.5791448 L27.3459327,21.6658005 C28.1585973,21.1513954 28.6229937,20.5001259 28.7391217,19.8292988 C28.749131,19.8209176 28.7542242,19.816627 28.7542242,19.816627 L28.7542242,19.7260867 C28.7728096,19.5707277 28.7728096,19.4146457 28.7542242,19.2592868 L28.7542242,9.34478487 L14.3642327,18.0268337 L10.561064,15.7074865 Z" id="Combined-Shape" fill="url(#radialGradient-1)"></path>
                        <path d="M27.3459327,7.29018649 L18.0032358,1.10014414 C16.1076367,-0.155792876 13.0333092,-0.155792876 11.1377102,1.10014414 L1.79501327,7.29018649 C-0.101294219,8.54659283 -0.101294219,10.5830318 1.79501327,11.8394381 L11.1377102,18.0290112 C13.0333092,19.2854175 16.1076367,19.2854175 18.0032358,18.0290112 L27.3459327,11.8394381 C29.2422402,10.5830318 29.2422402,8.54659283 27.3459327,7.29018649 Z M17.1883182,9.59260662 L24.4012722,9.59260662 C24.8151785,9.59260662 25.025728,9.89368617 24.7373667,10.0733052 L21.2070667,12.2758147 C21.0259419,12.3889668 20.7264647,12.390945 20.5414166,12.2801667 L16.8587624,10.0776572 C16.5612469,9.89962073 16.7698347,9.59260662 17.1883182,9.59260662 Z M11.9243198,9.59260662 L4.7113657,9.59260662 C4.29745944,9.59260662 4.08690997,9.89368617 4.3752712,10.0733052 L7.90557118,12.2758147 C8.08669604,12.3889668 8.38617321,12.390945 8.5712214,12.2801667 L12.2538755,10.0776572 C12.551391,9.89962073 12.3428032,9.59260662 11.9243198,9.59260662 Z M17.1883182,8.70732991 L24.4012722,8.70732991 C24.8151785,8.70732991 25.025728,8.40625045 24.7373667,8.22663136 L21.2070667,6.02412185 C21.0259419,5.91096975 20.7264647,5.90899157 20.5414166,6.01976985 L16.8587624,8.22227935 C16.5612469,8.40031588 16.7698347,8.70732991 17.1883182,8.70732991 Z M11.9243198,8.70732991 L4.7113657,8.70732991 C4.29745944,8.70732991 4.08690997,8.40625045 4.3752712,8.22663136 L7.90557118,6.02412185 C8.08669604,5.91096975 8.38617321,5.90899157 8.5712214,6.01976985 L12.2538755,8.22227935 C12.551391,8.40031588 12.3428032,8.70732991 11.9243198,8.70732991 Z M13.9017193,10.7890515 L13.9017193,15.15332 C13.9017193,15.403758 13.4041164,15.531153 13.1072547,15.3566773 L9.46710285,13.2206347 C9.28009307,13.1110434 9.27682363,12.9298417 9.45991014,12.8178766 L13.100062,10.5896507 C13.3943082,10.409636 13.9017193,10.5358441 13.9017193,10.7890515 Z M13.9017193,7.510885 L13.9017193,3.14661657 C13.9017193,2.89617854 13.4041164,2.76878352 13.1072547,2.94325931 L9.46710285,5.07930185 C9.28009307,5.18889322 9.27682363,5.37009482 9.45991014,5.48206001 L13.100062,7.7102859 C13.3943082,7.8903006 13.9017193,7.76409249 13.9017193,7.510885 Z M15.2109186,10.7890515 L15.2109186,15.15332 C15.2109186,15.403758 15.7085215,15.531153 16.0053832,15.3566773 L19.6455351,13.2206347 C19.8325448,13.1110434 19.8358142,12.9298417 19.6527277,12.8178766 L16.0125759,10.5896507 C15.7183297,10.409636 15.2109186,10.5358441 15.2109186,10.7890515 Z M15.2109186,7.510885 L15.2109186,3.14661657 C15.2109186,2.89617854 15.7085215,2.76878352 16.0053832,2.94325931 L19.6455351,5.07930185 C19.8325448,5.18889322 19.8358142,5.37009482 19.6527277,5.48206001 L16.0125759,7.7102859 C15.7183297,7.8903006 15.2109186,7.76409249 15.2109186,7.510885 Z" id="Combined-Shape" fill="#FFE900"></path>
                    </g>
                </g>
            </g>
            <path d="M64.8233548,17.4828102 C64.8080642,17.5040241 64.7922938,17.5248848 64.7760436,17.5453923 C64.0518494,18.4425617 63.3602543,19.05393 62.7012376,19.3795157 C62.0422208,19.7051013 61.2275146,19.8823619 60.2570943,19.9113029 C59.677739,20.403299 58.9897648,20.6492933 58.1931512,20.6492933 C57.4399892,20.6492933 56.8642634,20.4756502 56.4659566,20.1283589 C56.0676498,19.7810675 55.8684994,19.3903706 55.8684994,18.9562564 C55.8684994,18.5800241 56.0060942,18.2544434 56.281288,17.9795044 C56.5564818,17.7045654 56.9620245,17.5670979 57.4979282,17.5670979 C57.6862187,17.5670979 57.9070946,17.5851858 58.1605626,17.621362 C58.4140306,17.6575381 58.6059391,17.6828611 58.7362941,17.6973316 C58.7218102,17.3210993 58.6385291,16.966578 58.4864483,16.6337571 C58.3343676,16.3009362 58.142459,15.978973 57.9107168,15.6678578 C57.6789747,15.3567427 57.4617197,15.0854254 57.2589453,14.8538978 C56.8099449,15.7076557 56.3645721,16.4166983 55.9228137,16.9810467 C55.8423106,17.0838897 55.7604851,17.1857713 55.677337,17.2866917 C55.6262791,17.3808127 55.5668875,17.4670462 55.4991622,17.5453923 C55.3082172,17.7774077 55.0892324,18.0029922 54.8422067,18.2221466 C54.7230615,18.345478 54.6016772,18.4671828 54.4780534,18.5872612 C54.287587,18.7775513 54.0893923,18.8983303 53.8834661,18.9495999 C53.6775295,19.0848671 53.4593158,19.2173194 53.2288247,19.3469572 C52.2511625,19.8968352 51.2047176,20.1717701 50.0894585,20.1717701 C48.5686506,20.1717701 47.3882318,19.7593678 46.5481665,18.9345508 C46.398954,18.7880467 46.2629933,18.6319561 46.1402843,18.4662788 C45.6403925,18.9266168 45.0775113,19.3142323 44.4516348,19.6291301 C43.4450048,20.1355966 42.3116579,20.3888261 41.05156,20.3888261 C40.0666558,20.3888261 39.2121195,20.240506 38.4879253,19.9438613 C37.7637311,19.6472166 37.2097308,19.2420494 36.8259079,18.7283476 C36.442085,18.2146458 36.2501764,17.6394531 36.2501764,17.0027523 C36.2501764,16.0477011 36.6339935,15.2011911 37.4016394,14.463197 C38.1692853,13.7252028 39.2700439,13.0161603 40.7039485,12.3360481 L37.1409308,12.4228705 C36.8222853,12.4373409 36.5796839,12.3251965 36.4131192,12.0864336 C36.2465546,11.8476708 36.1632735,11.5618833 36.1632735,11.2290624 C36.1632735,10.881771 36.2465546,10.5742781 36.4131192,10.3065743 C36.5796839,10.0388706 36.8078017,9.90502072 37.0974794,9.90502072 C37.763738,9.90502072 38.6544835,9.95566662 39.7697426,10.0569599 C40.0014848,10.0714304 40.425132,10.1003709 41.0406971,10.1437823 C41.6562622,10.1871938 42.1740533,10.2088991 42.5940859,10.2088991 C42.7389247,10.2088991 43.0141144,10.1510181 43.4196632,10.0352543 C43.4920826,10.0207839 43.6332984,9.98460822 43.8433147,9.92672632 C44.053331,9.86884443 44.2307559,9.83990392 44.3755948,9.83990392 C44.6073369,9.83990392 44.7992455,9.94119571 44.9513263,10.1437823 C45.1034071,10.346369 45.1794463,10.6574795 45.1794463,11.0771232 C45.1794463,11.5401783 45.0708188,11.9019347 44.8535605,12.1624032 C44.6363023,12.4228718 44.2959361,12.6543959 43.8324518,12.8569825 C42.5144184,13.4213309 41.4209015,14.0254641 40.5518685,14.6694002 C39.6828354,15.3133362 39.2483254,15.9536451 39.2483254,16.5903459 C39.2483254,16.9955191 39.4366131,17.328335 39.8131941,17.5888036 C40.189775,17.8492721 40.7473962,17.9795044 41.4860743,17.9795044 C42.2971718,17.9795044 43.1191199,17.7769208 43.9519433,17.3717475 C44.445992,17.13139 44.9107288,16.817197 45.3461583,16.4291645 C45.307436,16.1496099 45.2880749,15.8560475 45.2880749,15.548477 C45.2880749,14.5500144 45.4980881,13.6203004 45.9181207,12.7593073 C46.3381533,11.8983141 46.9211209,11.2145945 47.667041,10.708128 C48.412961,10.2016614 49.2566346,9.94843193 50.1980871,9.94843193 C51.0381524,9.94843193 51.7116429,10.1980438 52.2185788,10.6972752 C52.7255148,11.1965065 52.9789789,11.872991 52.9789789,12.7267489 C52.9789789,13.7252115 52.6205082,14.5825742 51.9035559,15.2988626 C51.1866036,16.015151 49.9735965,16.5831086 48.2644982,17.0027523 C48.6265953,17.6683941 49.3145695,18.00121 50.3284414,18.00121 C50.9802162,18.00121 51.7225041,17.7733034 52.5553274,17.3174835 C53.0736462,17.0337979 53.5484822,16.6954677 53.9798407,16.3024884 C54.5219462,15.6086797 54.948723,15.0172918 55.2601793,14.5283138 C55.5064053,14.1086701 55.7960786,13.5479476 56.129208,12.8461297 C56.4623373,12.1443117 56.7882198,11.4171814 57.1068653,10.6647168 C57.3820591,10.0280159 57.9541639,9.70967031 58.823197,9.70967031 C59.2287457,9.70967031 59.5111772,9.74584595 59.6705,9.81819832 C59.8298227,9.89055068 59.9094828,10.0063127 59.9094828,10.1654879 C59.9094828,10.2523108 59.8805155,10.3897782 59.82258,10.5778944 C59.7646444,10.7660105 59.6849843,10.9541238 59.5835971,11.14224 C59.3228872,11.663177 59.1925342,12.1045198 59.1925342,12.4662817 C59.1925342,12.6833388 59.2685734,12.922098 59.4206542,13.1825665 C59.572735,13.443035 59.8080946,13.7686158 60.12674,14.1593186 C60.5902243,14.7670784 60.9414532,15.2843901 61.1804373,15.711269 C61.4194214,16.138148 61.5389117,16.6048138 61.5389117,17.1112803 C61.5389117,17.2559851 61.524428,17.4585686 61.4954602,17.7190372 C62.2051706,17.4440982 63.0379814,16.7133502 63.9939178,15.5267714 C64.1060383,15.3960852 64.2271986,15.3075517 64.3574002,15.2611701 C64.3178519,14.8433117 64.2980778,14.4036761 64.2980778,13.9422625 C64.2980778,13.3055617 64.3198033,12.6616353 64.363255,12.010464 L63.515952,12.010464 C63.0814354,12.010464 62.7881412,11.9308776 62.6360604,11.7717024 C62.4839796,11.6125272 62.4079404,11.3592977 62.4079404,11.0120064 C62.4079404,10.2016599 62.7338229,9.79649272 63.3855977,9.79649272 L64.6239636,9.79649272 C64.8701896,8.20474067 65.2467649,6.75047993 65.7537009,5.43366687 C66.2606368,4.11685382 66.8725718,3.06776025 67.589524,2.2863547 C68.3064763,1.50494915 69.0777316,1.11425223 69.9033129,1.11425223 C70.5116361,1.11425223 70.9895971,1.38195197 71.3372103,1.91735948 C71.6848235,2.45276699 71.8586275,3.12563389 71.8586275,3.93598039 C71.8586275,6.17890373 70.9171892,8.1323883 69.0342842,9.79649272 L71.4675646,9.79649272 C71.6993068,9.79649272 71.8658689,9.84713861 71.9672561,9.94843193 C72.0686433,10.0497252 72.1193361,10.2378386 72.1193361,10.5127776 C72.1193361,11.5112402 71.301009,12.010464 69.6643301,12.010464 L67.0137925,12.010464 C66.9848247,12.7339877 66.9703411,13.2983277 66.9703411,13.7035009 C66.9703411,14.745375 67.0246548,15.5593269 67.133284,16.1453811 C67.2419131,16.7314352 67.4229589,17.1510727 67.6764269,17.4043059 C67.9298949,17.6575392 68.2811238,17.784154 68.7301242,17.784154 C68.9618663,17.784154 69.237056,17.7118027 69.5557015,17.5670979 C69.8743469,17.4223932 70.1640203,17.2342799 70.4247302,17.0027523 C70.5840529,16.8580476 70.7433732,16.7856963 70.902696,16.7856963 C71.0765026,16.7856963 71.2177183,16.8833705 71.3263475,17.0787219 C71.4349766,17.2740733 71.4892903,17.509215 71.4892903,17.784154 C71.4892903,18.059093 71.4349766,18.3267927 71.3263475,18.5872612 C71.2177183,18.8477297 71.0547771,19.0647836 70.8375188,19.2384292 C70.0843568,19.8606596 69.2298205,20.1717701 68.2738841,20.1717701 C66.8979151,20.1717701 65.8913003,19.5965774 65.2540094,18.4461748 C65.0891284,18.1485408 64.945577,17.8274195 64.8233548,17.4828102 Z M48.4708925,13.0089217 C48.1015535,13.631152 47.9168867,14.3836054 47.9168867,15.2663042 L47.9168867,15.3097154 C48.7714359,15.1071288 49.4449264,14.8032534 49.9373785,14.3980802 C50.4298305,13.9929069 50.6760529,13.5226236 50.6760529,12.9872161 C50.6760529,12.7122771 50.6000136,12.4916057 50.4479328,12.3251953 C50.295852,12.1587848 50.0894598,12.0755808 49.8287499,12.0755808 C49.2928462,12.0755808 48.8402316,12.3866914 48.4708925,13.0089217 Z M68.588907,4.01195 C68.3209552,4.55459274 68.067491,5.30704606 67.8285069,6.26933252 C67.5895228,7.23161899 67.3903724,8.29880037 67.2310497,9.4709087 C68.0855988,8.73291457 68.7265011,7.90449241 69.1537757,6.98561736 C69.5810503,6.06674232 69.7946844,5.23108503 69.7946844,4.47862042 C69.7946844,3.6248625 69.635364,3.19798995 69.3167186,3.19798995 C69.0994603,3.19798995 68.8568589,3.46930725 68.588907,4.01195 Z" id="zest" fill="#FFDB00"></path>
        </g>
    </g>
</svg>